[center][img]http://img413.imageshack.us/img413/5664/chainletterb.jpg[/img]

[img]http://leetleech.org/images/48874973695367351744.png[/img]

Format                           : AVI
Format/Info                      : Audio Video Interleave
File size                        : 938 MiB
Duration                         : 1h 29mn
Overall bit rate                 : 1 472 Kbps
Writing application              : Nandub v1.0rc2
Writing library                  : VirtualDub build 32839/release

Video
ID                               : 0
Format                           : MPEG-4 Visual
Format profile                   : Advanced Simple@L5
Format settings, BVOP            : Yes
Format settings, QPel            : No
Format settings, GMC             : No warppoints
Format settings, Matrix          : Custom
Codec ID                         : XVID
Codec ID/Hint                    : XviD
Duration                         : 1h 29mn
Bit rate                         : 1 143 Kbps
Width                            : 624 pixels
Height                           : 336 pixels
Display aspect ratio             : 1.857
Frame rate                       : 23.976 fps
Color space                      : YUV
Chroma subsampling               : 4:2:0
Bit depth                        : 8 bits
Scan type                        : Progressive
Bits/(Pixel*Frame)               : 0.227
Stream size                      : 728 MiB (78%)
Writing library                  : XviD 1.2.1 (UTC 2008-12-04)

Audio
ID                               : 1
Format                           : AC-3
Format/Info                      : Audio Coding 3
Mode extension                   : CM (complete main)
Codec ID                         : 2000
Duration                         : 1h 29mn
Bit rate mode                    : Constant
Bit rate                         : 320 Kbps
Channel(s)                       : 6 channels
Channel positions                : Front: L C R, Side: L R, LFE
Sampling rate                    : 48.0 KHz
Bit depth                        : 16 bits
Video delay                      : 500ms
Stream size                      : 204 MiB (22%)
Alignment                        : Split accross interleaves
Interleave, duration             : 42 ms (1.00 video frame)
Interleave, preload duration     : 500 ms

[url]http://www.imdb.com/title/tt1148200/[/url]

Users: 5.4/10 (160 votes) 5 reviews | Critics: 13 reviews

A maniac murders teens when they refuse to forward chain mail.


Director:
Deon Taylor
Writers:
Diana Erwin, Michael J. Pagan, and 1 more credit »
Stars:
Nikki Reed, Keith David and Brad Dourif 


[img]http://leetleech.org/images/95521316153253938506.png[/img]


[img]http://img515.imageshack.us/img515/4127/vlcsnap2011012515h11m29.png[/img]
[img]http://img412.imageshack.us/img412/1737/vlcsnap2011012515h11m42.png[/img]
[img]http://img202.imageshack.us/img202/1918/vlcsnap2011012515h11m49.png[/img]


Greetz to Imagine ,Flawl3ss ,Santi ,Vision ,Kingdom,BDK,DiGiTALiNK,LEGION,Classified,THC,WBZ,Rx ,Feel Free and to all who share

[img]http://img411.imageshack.us/img411/6898/sig1n.jpg[/img]
[/center]